<svg width="97" height="25" viewBox="0 0 97 25" fill="none" xmlns="http://www.w3.org/2000/svg">
<path fill-rule="evenodd" clip-rule="evenodd" d="M80.2901 0.357027C85.7003 -0.643555 89.9727 0.454429 93.0718 3.70853C95.4231 6.05491 96.7491 9.23712 96.7598 12.5588C96.8528 16.1981 95.3209 19.3592 92.1155 22.0378C88.5249 25.0041 84.3588 25.6284 79.5728 23.8574C75.1189 22.1839 71.0723 20.9354 65.1618 20.9354C61.1611 20.9819 57.1678 21.2925 53.2079 21.8651C54.4792 20.8342 58.2143 19.4021 60.5926 18.4902C60.7984 18.4112 60.9941 18.3362 61.1772 18.2657C61.5968 18.103 62.0235 17.9488 62.4364 17.7995C63.0123 17.5914 63.5617 17.3928 64.0284 17.1943C65.0511 16.7604 65.6754 16.3309 65.2946 15.8306C64.6217 14.9407 61.3941 15.7996 60.4777 16.0476C57.4962 16.9295 54.5753 18.0047 51.7336 19.2663C47.7667 20.9531 42.786 21.6836 38.0487 21.9227C33.4044 22.113 29.3268 20.5812 27.1707 18.4251C27.6871 18.5493 28.1742 18.6707 28.6394 18.7866C32.0869 19.6455 34.3356 20.2058 38.4471 19.4256C39.3548 19.2574 42.6753 17.8849 42.1706 17.1057C41.9546 16.7608 41.4487 16.8581 40.5292 17.0351C38.5454 17.4168 34.6363 18.1691 27.5603 15.6491C27.054 15.4701 26.5426 15.264 26.0022 15.0463C22.9748 13.8267 19.0399 12.2413 10.0235 12.9927C9.69455 13.0196 9.29317 13.0646 8.83605 13.116C6.58025 13.3693 2.96718 13.7751 0 12.8953C5.14584 10.84 10.4651 9.24867 15.8942 8.14032C21.5435 6.99806 25.8735 7.65331 28.7955 8.769C27.5603 6.66158 24.2752 4.95705 24.2752 4.95705C26.3436 5.21997 28.3517 5.83543 30.2123 6.77669C30.7505 7.06073 31.4467 7.55708 32.2955 8.16222C34.5954 9.80201 38.0158 12.2406 42.4495 13.4177C46.2546 14.4893 50.2309 14.8155 54.1598 14.3785C54.3662 14.3573 54.5579 14.3377 54.7369 14.3194C56.6166 14.1273 57.0911 14.0787 58.3038 13.8605C60.0703 13.5373 61.3676 12.271 61.0266 11.266C60.6857 10.261 59.3797 9.76958 57.9009 10.1238C57.6176 10.1916 57.2283 10.3414 56.7383 10.5299C54.6712 11.3252 50.8124 12.8099 45.5619 11.7398C42.2346 11.0616 39.7799 9.26682 37.3758 7.50901C35.087 5.83557 32.8441 4.19564 29.9378 3.58457C34.5289 2.85855 37.8409 4.46114 40.9756 5.97797C42.4479 6.69035 43.881 7.38382 45.3892 7.80826C48.6743 8.74686 53.9252 8.53435 56.7941 7.92338C57.9541 7.67544 58.5473 7.24156 57.3431 6.71028C56.1389 6.179 49.0684 5.16513 42.6576 4.9172C47.0583 2.76551 53.8366 4.14684 53.8366 4.14684C52.2649 2.57513 48.7673 1.83576 48.7673 1.83576C53.0441 1.41516 57.2988 1.45058 60.3581 3.24809C62.3068 4.39363 63.2552 5.18022 64.1791 5.94642C64.5692 6.26997 64.9549 6.58988 65.4097 6.93165C65.422 6.94151 65.4352 6.95215 65.4493 6.9635C65.9472 7.3651 67.5377 8.64786 68.5797 7.02462C69.5272 5.55031 67.3843 4.6737 65.8525 4.10257C64.1866 3.51776 62.7608 2.3986 61.797 0.919301C62.1896 1.00742 62.6002 1.11321 63.0289 1.22365C64.4957 1.6015 66.174 2.03384 68.0617 1.99958C73.7951 1.90217 80.2901 0.357027 80.2901 0.357027ZM74.6408 12.4701C74.6408 18.0231 79.1424 22.5247 84.6953 22.5247C90.2483 22.5247 94.7498 18.0231 94.7498 12.4701C94.7498 6.91717 90.2483 2.41561 84.6953 2.41561C79.1424 2.41561 74.6408 6.91717 74.6408 12.4701Z" fill="#C8C9C7"/>
</svg>
