<svg width="213" height="55" viewBox="0 0 213 55" fill="none" xmlns="http://www.w3.org/2000/svg">
<path d="M203.957 8.11273C197.155 1.00913 187.824 -1.39887 176.024 0.768334C176.024 0.768334 161.817 4.13953 149.296 4.38033C143.938 4.50073 139.423 2.87533 135.63 2.03253C137.737 5.34353 140.928 7.63113 144.48 9.01573C147.851 10.2799 152.546 12.1461 150.439 15.3969C148.092 19.0691 144.48 15.9989 143.516 15.2163C140.145 12.6879 138.52 10.7013 132.5 7.14953C125.818 3.23653 116.487 3.11613 107.156 4.07933C107.156 4.07933 114.801 5.70473 118.232 9.13613C118.232 9.13613 103.423 6.12613 93.7913 10.8217C107.818 11.3635 123.229 13.5909 125.878 14.7347C128.527 15.8785 127.202 16.8417 124.674 17.3835C118.413 18.7079 106.915 19.1895 99.7511 17.1427C89.4569 14.1929 80.7279 5.58433 65.9789 7.93213C78.9821 10.6411 85.9051 22.8617 100.112 25.7513C114.319 28.6409 123.831 22.9821 127.082 22.1995C130.333 21.4169 133.162 22.5005 133.945 24.7279C134.667 26.9553 131.838 29.6643 127.985 30.3867C125.095 30.9285 124.132 30.9887 118.955 31.5305C108.119 32.6743 100.293 31.2897 93.3699 29.4235C80.1259 25.9319 70.9755 17.2029 66.6411 14.9153C62.2465 12.5675 57.4305 11.4839 53.6981 10.9421C53.6981 10.9421 60.8619 14.6745 63.5709 19.2497C57.1897 16.7815 47.7383 15.3367 35.3973 17.8651C28.8355 19.1293 16.2537 22.1393 0.661865 28.2797C8.42766 30.5673 18.3005 28.8215 22.5747 28.4603C45.8119 26.5941 53.5777 31.7111 60.9221 34.2997C83.5573 42.3665 91.3231 35.0823 92.8883 37.4903C93.9719 39.1759 86.7479 42.1859 84.7613 42.5471C74.5875 44.4735 69.5909 42.6675 60.1395 40.3799C64.8351 45.0755 73.7447 48.4467 83.9185 48.0253C94.2729 47.4835 105.169 45.9183 113.838 42.2461C124.072 37.9117 128.346 36.5873 132.921 35.2027C134.908 34.6609 141.951 32.7947 143.456 34.7211C144.299 35.8047 142.914 36.7679 140.687 37.6709C138.941 38.3933 136.654 39.1759 134.486 40.0187C129.49 41.9451 120.099 45.4367 117.089 47.9049C117.089 47.9049 130.333 45.8581 143.215 45.8581C156.098 45.8581 164.948 48.5671 174.7 52.2393C185.175 56.0921 194.265 54.7677 202.091 48.2661C209.074 42.4267 212.445 35.5037 212.265 27.5573C212.024 19.9119 209.195 13.4103 203.957 8.11273ZM185.656 49.2293C173.496 49.2293 163.683 39.4167 163.683 27.2563C163.683 15.0959 173.496 5.28333 185.656 5.28333C197.817 5.28333 207.629 15.0959 207.629 27.2563C207.629 39.4167 197.817 49.2293 185.656 49.2293Z" fill="white"/>
</svg>
