<svg xmlns="http://www.w3.org/2000/svg" width="113.4" height="41.9" viewBox="0 0 113.4 41.9"><g fill="#B84F30"><path d="M83.5 3.7c-3.6 0-6.5 2.9-6.5 6.5s2.9 6.5 6.5 6.5 6.5-2.9 6.5-6.5c0-3.5-2.9-6.5-6.5-6.5zm3 10.9c.7-.9 1.2-2.1 1.2-3.4 0-2.7-1.9-4.9-4.4-5.4.2-.3.5-.6.8-.9 2.6.4 4.5 2.7 4.5 5.4 0 1.8-.8 3.3-2.1 4.3zM90.4 3.1c-2.6-2.7-6.1-3.6-10.5-2.8 0 0-5.3 1.3-10.1 1.4-2 0-3.7-.6-5.2-.9.8 1.3 2 2.1 3.3 2.6 1.3.5 3 1.2 2.2 2.4-.7 1.4-2.1.2-2.5-.1-1.3-.9-1.9-1.7-4.2-3-2.5-1.5-6-1.5-9.5-1.2 0 0 2.9.6 4.2 1.9 0 0-5.6-1.1-9.2.6 5.3.3 11.1 1.1 12.1 1.5 1 .4.5.8-.5 1-2.4.5-6.7.7-9.4-.1-3.8-1.1-7.1-4.3-12.7-3.4 4.9 1 7.5 5.6 12.9 6.7 5.3 1.1 8.9-1 10.2-1.3 1.2-.4 2.2 0 2.5.9.3.8-.8 1.9-2.2 2.1-1.1.2-1.5.2-3.4.4-4.1.4-7-.1-9.6-.8-5-1.3-8.4-4.6-10.1-5.5-1.6-.9-3.5-1.3-4.9-1.5 0 0 2.7 1.4 3.7 3.1-2.4-.9-6-1.5-10.6-.5-2.5.5-7.2 1.6-13.1 3.9 2.9.9 6.6.2 8.2.1 8.8-.7 11.7 1.2 14.4 2.2 8.5 3 11.5.3 12 1.2.4.6-2.3 1.8-3.1 1.9-3.8.7-5.7 0-9.3-.8 1.8 1.8 5.1 3 9 2.9 3.9-.2 8-.8 11.3-2.2 3.9-1.6 5.5-2.1 7.2-2.6.8-.2 3.4-.9 4-.2.3.4-.2.8-1 1.1-.7.3-1.5.6-2.3.9-1.9.7-5.4 2-6.5 3 0 0 5-.8 9.9-.8s8.2 1 11.9 2.4c3.9 1.5 7.4.9 10.3-1.5 2.6-2.2 3.9-4.8 3.8-7.8-.2-2.8-1.2-5.2-3.2-7.2zm-6.9 15.5c-4.6 0-8.3-3.7-8.3-8.3 0-4.6 3.7-8.3 8.3-8.3 4.6 0 8.3 3.7 8.3 8.3 0 4.6-3.7 8.3-8.3 8.3zM53 29.4h-17.6l-4.5 12.4h3.4l3.4-9.4h4.3c.5 0 .7.4.5.9l-3.1 8.6h3.4l3.1-8.6c.2-.5.7-.9 1.2-.9h3.4c.5 0 .7.4.5.9l-3 8.6h3.4l3.6-9.9c.5-1.4-.4-2.6-2-2.6zM76.8 38c-.2.5-.7.9-1.2.9h-4.3c-.5 0-.7-.4-.5-.9l3.1-8.6h-3.4l-3.6 9.9c-.5 1.4.4 2.6 2.1 2.6h7.7c1.2 0 2.4-.8 2.8-1.7l3.9-10.7h-3.4l-3.2 8.5zM19.8 38l.3-.9h10.3l1.1-3 .8-2.1c.5-1.4-.4-2.6-2.1-2.6h-8.6c-1.2 0-2.4.8-2.8 1.7l-3 8.1c-.5 1.4.4 2.6 2.1 2.6h10.7l1.1-3h-9.4c-.4.1-.6-.3-.5-.8zm1.7-4.7c.2-.5.7-.9 1.2-.9h5.1c.5 0 .7.4.5.9l-.3.9h-6.9l.4-.9zM110 29.4l-1.8 4.7h-6l1.8-4.7h-3.5l-4.5 12.5h3.4l1.7-4.8h6l-1.7 4.8h3.5l4.5-12.5h-3.4zM57.5 31.1l-3.9 10.7h3.4l3.1-8.6c.2-.5.7-.9 1.2-.9h6l1.1-3h-8.1c-1.2.1-2.5.9-2.8 1.8zM3.9 31.1l-1.2 3.4c-.5 1.4.4 2.6 2.1 2.6h5.6c.5 0 .7.4.5.9-.2.5-.7.9-1.2.9h-8.6l-1.1 3h10.7c1.2 0 2.4-.8 2.8-1.7l1.2-3.4c.5-1.4-.4-2.6-2.1-2.6h-5.5c-.5 0-.7-.4-.5-.9.2-.5.7-.9 1.2-.9h8.6l1.1-3h-10.8c-1.2 0-2.5.8-2.8 1.7zM84.9 31.1l-1.2 3.4c-.5 1.4.4 2.6 2.1 2.6h5.6c.5 0 .7.4.5.9-.2.5-.7.9-1.2.9h-8.6l-1.1 3h10.7c1.2 0 2.4-.8 2.8-1.7l1.2-3.4c.5-1.4-.4-2.6-2.1-2.6h-5.6c-.5 0-.7-.4-.5-.9.2-.5.7-.9 1.2-.9h8.6l1.1-3h-10.7c-1.2 0-2.5.8-2.8 1.7z"/></g></svg>