<?xml version="1.0" encoding="utf-8"?>
<!-- Generator: Adobe Illustrator 21.1.0, SVG Export Plug-In . SVG Version: 6.00 Build 0)  -->
<svg version="1.1" id="Layer_1" xmlns="http://www.w3.org/2000/svg" xmlns:xlink="http://www.w3.org/1999/xlink" x="0px" y="0px"
	 viewBox="0 0 500 49.5" style="enable-background:new 0 0 500 49.5;" xml:space="preserve">
<style type="text/css">
	.st0{fill:#BA4818;}
</style>
<g>
	<g>
		<path class="st0" d="M346.2,8.9h-44.7l0,0l-11.5,31.6l0,0h8.7l0,0l8.7-24l0,0h10.9c1.2,0,1.8,1,1.4,2.2l-7.9,21.8l0,0h8.7l0,0
			l7.9-21.8c0.4-1.2,1.8-2.2,3-2.2h8.7c1.2,0,1.8,1,1.4,2.2l-7.9,21.8l0,0h8.7l0,0l9.1-25.1C352.7,11.9,350.4,8.9,346.2,8.9z"/>
		<path class="st0" d="M407,30.8c-0.4,1.2-1.8,2.2-3,2.2l0,0l-10.9,0c-1.2,0-1.8-1-1.4-2.2l7.9-21.8l0,0h-8.7l0,0L381.8,34
			c-1.3,3.6,1,6.5,5.3,6.5h19.6c3,0,6.2-2,7-4.4l9.9-27.3l0,0h-8.7l0,0L407,30.8z"/>
		<path class="st0" d="M261.8,30.8l0.8-2.2l0,0h26.2h0l2.8-7.6l2-5.5c1.3-3.6-1-6.5-5.3-6.5h-21.8c-3,0-6.2,2-7,4.4h0L251.9,34
			c-1.3,3.6,1,6.5,5.3,6.5h27.3l0,0l2.8-7.6l0,0l-24,0C262,32.9,261.4,32,261.8,30.8z M266.2,18.8c0.4-1.2,1.8-2.2,3-2.2l13.1,0
			c1.2,0,1.8,1,1.4,2.2l-0.8,2.2l0,0h-17.5l0,0L266.2,18.8z"/>
		<polygon class="st0" points="491.3,8.9 486.9,20.9 486.9,20.9 471.6,20.9 471.6,20.9 476,8.9 476,8.9 467.3,8.9 467.3,8.9 
			455.8,40.6 455.8,40.6 464.5,40.6 464.5,40.6 468.8,28.6 468.8,28.6 484.1,28.6 484.1,28.6 479.8,40.6 479.8,40.6 488.5,40.6 
			488.5,40.6 500,8.9 500,8.9 491.3,8.9 		"/>
		<path class="st0" d="M357.7,13.3l-9.9,27.3l0,0h8.7l0,0l7.9-21.8c0.4-1.2,1.8-2.2,3-2.2h15.3l0,0l2.8-7.6l0,0h-20.7
			C361.7,8.9,358.5,10.9,357.7,13.3z"/>
		<path class="st0" d="M221.3,13.3L221.3,13.3l-3.2,8.7c-1.3,3.6,1,6.5,5.3,6.5h14.2l0,0c1.2,0,1.8,1,1.4,2.2v0
			c-0.4,1.2-1.8,2.2-3,2.2h-21.8l0,0l-2.8,7.6l0,0h27.3c3,0,6.2-2,7-4.4l3.2-8.7c1.3-3.6-1-6.5-5.3-6.5l-14.2,0
			c-1.2,0-1.8-1-1.4-2.2h0c0.4-1.2,1.8-2.2,3-2.2h21.8l0,0l2.8-7.6l0,0h-27.3C225.3,8.9,222.2,10.9,221.3,13.3z"/>
		<path class="st0" d="M427.5,13.3L427.5,13.3l-3.2,8.7c-1.3,3.6,1,6.5,5.3,6.5h14.2l0,0c1.2,0,1.8,1,1.4,2.2v0
			c-0.4,1.2-1.8,2.2-3,2.2h-21.8l0,0l-2.8,7.6l0,0h27.3c3,0,6.2-2,7-4.4l3.2-8.7c1.3-3.6-1-6.5-5.3-6.5l-14.2,0
			c-1.2,0-1.8-1-1.4-2.2l0,0c0.4-1.2,1.8-2.2,3-2.2H459l0,0l2.8-7.6l0,0h-27.3C431.5,8.9,428.4,10.9,427.5,13.3z"/>
	</g>
	<g>
		<path class="st0" d="M185.4,7.4c-6.2-6.5-14.7-8.7-25.5-6.7c0,0-12.9,3.1-24.4,3.3c-4.9,0.1-9-1.4-12.5-2.2c1.9,3,4.8,5.1,8.1,6.3
			c3.1,1.1,7.3,2.9,5.4,5.8c-2.1,3.3-5.4,0.5-6.3-0.2c-3.1-2.3-4.5-4.1-10.1-7.3c-6.1-3.6-14.6-3.7-23.1-2.8c0,0,7,1.5,10.1,4.6
			c0,0-13.5-2.8-22.3,1.5c12.8,0.5,26.9,2.5,29.3,3.6c2.4,1.1,1.2,1.9-1.1,2.4c-5.7,1.2-16.2,1.6-22.7-0.2C81,12.9,73.1,5,59.6,7.1
			c11.9,2.5,18.2,13.6,31.1,16.2c12.9,2.6,21.6-2.5,24.6-3.2c2.9-0.7,5.5,0.3,6.2,2.3c0.7,2-1.9,4.5-5.4,5.2c-2.6,0.5-3.5,0.5-8.3,1
			c-9.9,1-17-0.2-23.3-1.9c-12.1-3.2-20.4-11.1-24.4-13.2c-4-2.1-8.4-3.1-11.8-3.6c0,0,6.5,3.4,9,7.6c-5.8-2.2-14.4-3.5-25.7-1.3
			c-6,1.1-17.4,3.9-31.7,9.5c7.1,2.1,16.1,0.5,20,0.2c21.2-1.7,28.3,2.9,34.9,5.3c20.6,7.3,27.7,0.7,29.1,2.9c1,1.6-5.6,4.3-7.4,4.6
			c-9.3,1.7-13.8,0.1-22.5-2c4.3,4.3,12.4,7.3,21.7,7c9.4-0.5,19.4-1.9,27.3-5.3c9.3-3.9,13.2-5.2,17.4-6.4c1.8-0.5,8.3-2.2,9.6-0.4
			c0.8,1-0.5,1.8-2.5,2.7c-1.6,0.7-3.7,1.4-5.7,2.1c-4.6,1.8-13.1,4.9-15.8,7.2c0,0,12.1-1.8,23.8-1.8s19.8,2.5,28.7,5.8
			c9.5,3.5,17.8,2.3,25-3.6c6.4-5.3,9.4-11.6,9.3-18.9C192.7,18.2,190.2,12.3,185.4,7.4z M168.7,44.9c-11.1,0-20-9-20-20s9-20,20-20
			s20,9,20,20S179.8,44.9,168.7,44.9z"/>
		<path class="st0" d="M168.7,9.1c-8.7,0-15.8,7.1-15.8,15.8c0,8.7,7.1,15.8,15.8,15.8c8.7,0,15.8-7.1,15.8-15.8
			C184.5,16.1,177.5,9.1,168.7,9.1z M176.1,35.4c1.8-2.3,2.8-5.1,2.8-8.2c0-6.4-4.6-11.8-10.7-13c0.6-0.8,1.2-1.5,1.9-2.2
			c6.2,1.1,11,6.5,11,13C181.1,29.2,179.1,32.9,176.1,35.4z"/>
	</g>
</g>
</svg>
