<?xml version="1.0" encoding="utf-8"?>
<!-- Generator: Adobe Illustrator 21.1.0, SVG Export Plug-In . SVG Version: 6.00 Build 0)  -->
<svg version="1.1" id="Layer_1" xmlns="http://www.w3.org/2000/svg" xmlns:xlink="http://www.w3.org/1999/xlink" x="0px" y="0px"
	 viewBox="0 0 500 127.9" style="enable-background:new 0 0 500 127.9;" xml:space="preserve">
<style type="text/css">
	.st0{fill:#BA4818;}
</style>
<g>
	<path class="st0" d="M437.2,23.5c-22.7,0-41,18.3-41,41s18.3,41,41,41s41-18.3,41-41S459.8,23.5,437.2,23.5z M456.2,91.6
		c4.7-5.8,7.3-13.2,7.3-21.2c0-16.7-12-30.6-27.8-33.6c1.5-2,3.2-4,5-5.8c16.2,2.7,28.5,16.8,28.5,33.8
		C469.2,75.6,464.2,85.3,456.2,91.6z"/>
	<path class="st0" d="M480.3,19.2c-16-16.8-38-22.5-66-17.3c0,0-33.5,8-63.1,8.5c-12.7,0.2-23.3-3.5-32.3-5.5
		c5,7.8,12.5,13.3,21,16.5c8,3,19,7.5,14.2,15c-5.5,8.7-14,1.3-16.3-0.5c-7.8-6-11.8-10.7-26.1-19c-15.8-9.3-37.8-9.5-59.8-7.3
		c0,0,18,3.8,26.1,12c0,0-35-7.2-57.6,4c33.1,1.3,69.6,6.5,75.8,9.3c6.2,2.8,3.2,5-2.8,6.3c-14.8,3.2-42,4.3-58.8-0.7
		c-24.6-7.2-45.1-27.5-79.9-22c30.8,6.5,47.1,35.3,80.6,42.1s56.1-6.5,63.6-8.3c7.7-1.8,14.3,0.7,16.2,5.8s-5,11.7-14,13.3
		c-6.8,1.2-9.2,1.5-21.3,2.7c-25.6,2.7-44-0.7-60.5-5c-31.3-8.3-52.8-28.8-63.1-34.3c-10.3-5.5-21.8-8.2-30.6-9.3
		c0,0,17,8.8,23.3,19.7c-15.2-5.8-37.5-9.2-66.6-3.3C66.5,45,36.8,52.1,0,66.5C18.3,72,41.6,67.8,51.8,67c55-4.5,73.3,7.7,90.4,13.8
		c53.5,19,71.9,1.8,75.4,7.5c2.7,4-14.5,11.2-19.2,12c-24.1,4.5-35.8,0.2-58.1-5.2c11.2,11.2,32.1,19,56.1,18
		c24.5-1.2,50.1-5,70.6-13.7c24.1-10.2,34.3-13.3,45.1-16.7c4.7-1.3,21.3-5.7,24.8-1.2c2,2.7-1.3,4.8-6.5,7
		c-4.2,1.8-9.5,3.5-14.7,5.5c-11.8,4.5-34,12.8-41,18.5c0,0,31.3-4.8,61.8-4.8c30.5,0,51.5,6.5,74.4,15c24.6,9.2,46.1,6,64.8-9.3
		c16.5-13.8,24.5-30.1,24-49C499.3,47.1,492.6,31.8,480.3,19.2z M437.2,116.4c-28.6,0-52-23.2-52-52c0-28.6,23.2-52,52-52
		c28.6,0,52,23.2,52,52C489,93.1,465.8,116.4,437.2,116.4z"/>
</g>
</svg>
