<svg xmlns="http://www.w3.org/2000/svg" viewBox="0 0 423.88 170"><defs><style>.cls-1{fill:#ff7f00;}.cls-2{fill:#e84e0f;}.cls-3{fill:#474b53;}.cls-4{fill:#3f434b;stroke:#fff;stroke-miterlimit:10;}</style></defs><g id="Слой_2" data-name="Слой 2"><g id="Слой_1-2" data-name="Слой 1"><path class="cls-1" d="M7.91,84.85v16.36l37,4.19s196.77,1.52,251.15,0S423.88,84.85,423.88,84.85Z"/><polygon class="cls-1" points="190.37 64.39 78.78 0 78.78 67.63 190.37 64.39"/><polygon class="cls-1" points="190.37 105.61 78.78 170 78.78 102.37 190.37 105.61"/><path class="cls-1" d="M7.91,85.15V68.79l37-4.19s196.77-1.52,251.15,0S423.88,85.15,423.88,85.15Z"/><path class="cls-2" d="M7.91,85.32v13.5l36.22,3.46s192.61,1.25,245.83,0,125.12-17,125.12-17Z"/><polygon class="cls-2" points="190.37 85.64 78.78 46.4 78.78 87.62 190.37 85.64"/><polygon class="cls-1" points="52.38 69.02 28.76 39.37 15.32 39.37 30.15 68.56 52.38 69.02"/><polygon class="cls-2" points="52.38 100.37 28.76 130.02 15.32 130.02 30.15 100.83 52.38 100.37"/><circle class="cls-3" cx="248.5" cy="84.75" r="5"/><circle class="cls-3" cx="271.5" cy="84.75" r="5"/><circle class="cls-3" cx="294.5" cy="84.75" r="5"/><ellipse class="cls-4" cx="7.91" cy="85" rx="7.41" ry="16.44"/></g></g></svg>