<svg xmlns="http://www.w3.org/2000/svg" viewBox="0 0 2673 23"><defs><style>.cls-1{fill:none;stroke:#fff;stroke-linecap:round;stroke-miterlimit:10;stroke-width:5px;}</style></defs><g id="Слой_2" data-name="Слой 2"><g id="Слой_1-2" data-name="Слой 1"><path class="cls-1" d="M2.5,2.5c22.61,0,22.61,18,45.21,18s22.61-18,45.22-18,22.61,18,45.22,18,22.6-18,45.21-18,22.61,18,45.22,18,22.61-18,45.22-18,22.61,18,45.21,18,22.61-18,45.22-18,22.61,18,45.22,18,22.61-18,45.22-18,22.61,18,45.21,18,22.61-18,45.22-18,22.61,18,45.22,18,22.61-18,45.22-18,22.61,18,45.22,18,22.61-18,45.22-18,22.61,18,45.21,18,22.61-18,45.22-18,22.61,18,45.22,18,22.61-18,45.22-18,22.61,18,45.22,18,22.61-18,45.22-18,22.61,18,45.22,18,22.61-18,45.22-18,22.61,18,45.22,18,22.61-18,45.22-18,22.61,18,45.22,18,22.61-18,45.22-18,22.61,18,45.22,18,22.61-18,45.22-18,22.61,18,45.22,18,22.61-18,45.22-18,22.61,18,45.22,18,22.61-18,45.22-18,22.61,18,45.22,18,22.62-18,45.23-18,22.61,18,45.22,18,22.61-18,45.22-18,22.61,18,45.22,18,22.61-18,45.22-18,22.61,18,45.22,18,22.61-18,45.22-18,22.6,18,45.21,18,22.62-18,45.23-18,22.61,18,45.22,18,22.61-18,45.22-18,22.61,18,45.22,18,22.61-18,45.22-18,22.61,18,45.22,18,22.61-18,45.23-18,22.61,18,45.22,18,22.61-18,45.23-18,22.61,18,45.22,18,22.61-18,45.22-18,22.62,18,45.23,18,22.61-18,45.22-18,22.62,18,45.23,18,22.61-18,45.23-18,22.61,18,45.23,18"/></g></g></svg>